Coordinates
version=1
nRows=9
nColumns=63
inDegrees=yes

Units are S.I. units (second, meters, Newtons, ...)
If the header above contains a line with 'inDegrees', this indicates whether rotational values are in degrees (yes) or radians (no).

endheader
time	pelvis_tilt	pelvis_list	pelvis_rotation	pelvis_tx	pelvis_ty	pelvis_tz	hip_flexion_r	hip_adduction_r	hip_rotation_r	knee_angle_r	knee_angle_r_beta	ankle_angle_r	subtalar_angle_r	mtp_angle_r	hip_flexion_l	hip_adduction_l	hip_rotation_l	knee_angle_l	knee_angle_l_beta	ankle_angle_l	subtalar_angle_l	mtp_angle_l	L5_S1_Flex_Ext	L5_S1_Lat_Bending	L5_S1_axial_rotation	L4_L5_Flex_Ext	L4_L5_Lat_Bending	L4_L5_axial_rotation	L3_L4_Flex_Ext	L3_L4_Lat_Bending	L3_L4_axial_rotation	L2_L3_Flex_Ext	L2_L3_Lat_Bending	L2_L3_axial_rotation	L1_L2_Flex_Ext	L1_L2_Lat_Bending	L1_L2_axial_rotation	L1_T12_Flex_Ext	L1_T12_Lat_Bending	L1_T12_axial_rotation	Abs_r3	Abs_r2	Abs_r1	Abs_t1	Abs_t2	neck_flexion	neck_bending	neck_rotation	arm_flex_r	arm_add_r	arm_rot_r	elbow_flex_r	pro_sup_r	wrist_flex_r	wrist_dev_r	arm_flex_l	arm_add_l	arm_rot_l	elbow_flex_l	pro_sup_l	wrist_flex_l	wrist_dev_l
4.813559	0.642608	-1.713388	93.862020	0.183486	0.518320	0.997951	3.759019	1.921418	-10.594491	15.601983	0.272306	47.782548	17.598068	0.000000	1.597876	-0.615004	-6.682133	12.948989	0.226002	45.450873	7.429259	0.000000	-0.163733	0.194713	1.413583	-0.304069	0.258969	1.501932	-0.268997	0.473426	1.501932	-0.187131	0.473426	1.236885	-0.152043	0.397059	1.148536	-0.093557	0.301611	1.060187	-1.169530	2.202634	7.861925	0.000000	0.000000	7.459854	-10.411158	10.994549	-5.720286	-14.056446	22.050381	34.094576	77.583105	-1.517495	6.921035	9.322354	-15.703415	79.565873	25.492016	54.364080	-11.219563	-10.398705
4.830508	0.538437	-1.761649	93.381006	0.184471	0.518382	0.998080	3.783998	1.876389	-10.093224	15.530170	0.271053	47.643937	17.611497	0.000000	1.578079	-0.556203	-7.356773	12.864126	0.224521	45.442235	7.585034	0.000000	-0.162695	0.178775	1.504148	-0.302141	0.237770	1.598157	-0.267292	0.434673	1.598157	-0.185944	0.434673	1.316129	-0.151079	0.364557	1.222120	-0.092964	0.276922	1.128111	-1.162114	2.022335	8.365618	0.000000	0.000000	7.558658	-10.289263	11.056585	-5.657761	-13.955979	22.419954	33.901138	77.486996	-2.015904	6.476186	9.371309	-15.893263	79.641065	25.669951	54.095579	-10.855086	-10.270043
4.847458	0.415151	-1.817083	92.916350	0.185393	0.518377	0.998282	3.833649	1.789174	-9.677393	15.528894	0.271030	47.505273	17.608805	0.000000	1.565323	-0.461759	-7.908143	12.772447	0.222921	45.411016	7.618877	0.000000	-0.162964	0.160722	1.592984	-0.302640	0.213760	1.692546	-0.267733	0.390779	1.692546	-0.186251	0.390779	1.393861	-0.151328	0.327744	1.294300	-0.093118	0.248958	1.194738	-1.164034	1.818117	8.859701	0.000000	0.000000	7.708921	-10.180687	11.054458	-5.577143	-13.862705	22.747634	33.720680	77.362497	-2.456835	6.164702	9.399655	-16.090311	79.512977	25.844844	53.985678	-10.382213	-10.128499
4.864407	0.298770	-1.886514	92.529155	0.186155	0.518296	0.998544	3.911413	1.686449	-9.375480	15.585746	0.272023	47.373185	17.562877	0.000000	1.587875	-0.363822	-8.342345	12.709992	0.221831	45.379505	7.609404	0.000000	-0.162531	0.144298	1.665561	-0.301836	0.191917	1.769658	-0.267022	0.350847	1.769658	-0.185757	0.350847	1.457365	-0.150926	0.294253	1.353268	-0.092870	0.223518	1.249170	-1.160942	1.632330	9.263348	0.000000	0.000000	7.913160	-10.117249	11.046171	-5.513182	-13.748281	22.756151	33.610599	77.596774	-2.645535	6.131066	9.399877	-16.282374	79.252402	26.018255	53.887310	-9.871141	-9.999806
4.881356	0.168139	-1.963585	92.165037	0.186821	0.518187	0.998894	4.024789	1.552092	-9.114765	15.704908	0.274102	47.267653	17.488868	0.000000	1.621228	-0.231105	-8.631111	12.654506	0.220863	45.307817	7.463564	0.000000	-0.162469	0.126639	1.739557	-0.301722	0.168430	1.848279	-0.266921	0.307911	1.848279	-0.185686	0.307911	1.522113	-0.150869	0.258243	1.413390	-0.092835	0.196164	1.304668	-1.160502	1.432569	9.674895	0.000000	0.000000	8.131639	-10.068274	10.970090	-5.455228	-13.632498	22.607154	33.517416	77.924975	-2.705019	6.193573	9.487582	-16.452640	79.308938	26.128050	53.551862	-9.334528	-9.952220
4.898305	0.080207	-2.043516	91.924544	0.187221	0.518051	0.999290	4.157312	1.438170	-9.007797	15.861079	0.276828	47.189965	17.414827	0.000000	1.683072	-0.131072	-8.773575	12.634364	0.220511	45.235549	7.309626	0.000000	-0.161575	0.115526	1.789345	-0.300061	0.153650	1.901179	-0.265451	0.280891	1.901179	-0.184664	0.280891	1.565677	-0.150038	0.235581	1.453843	-0.092324	0.178950	1.342009	-1.154112	1.306857	9.951802	0.000000	0.000000	8.378403	-10.051808	10.924174	-5.416074	-13.552278	22.257918	33.523909	78.412824	-2.533312	6.518661	9.547964	-16.585105	79.227962	26.237514	53.219066	-8.818157	-9.876001
4.915254	0.011158	-2.124160	91.756200	0.187442	0.517931	0.999756	4.315381	1.329170	-8.970371	16.052698	0.280172	47.145921	17.336357	0.000000	1.763788	-0.041920	-8.830182	12.645450	0.220705	45.149929	7.151203	0.000000	-0.160502	0.107722	1.827567	-0.298068	0.143270	1.941790	-0.263688	0.261915	1.941790	-0.183437	0.261915	1.599121	-0.149042	0.219667	1.484898	-0.091711	0.166861	1.370675	-1.146448	1.218572	10.164380	0.000000	0.000000	8.625793	-10.045657	10.887587	-5.369025	-13.514598	21.835335	33.568204	78.895268	-2.183085	6.998770	9.705236	-16.702227	79.600963	26.309290	52.338718	-8.411259	-9.985012
4.932203	-0.010842	-2.217711	91.701019	0.187424	0.517811	1.000247	4.496836	1.263168	-8.974895	16.241550	0.283469	47.109003	17.195080	0.000000	1.876745	0.026806	-8.624580	12.674669	0.221215	45.027235	6.812921	0.000000	-0.156462	0.106386	1.841379	-0.290565	0.141494	1.956465	-0.257051	0.258668	1.956465	-0.178820	0.258668	1.611206	-0.145290	0.216943	1.496120	-0.089402	0.164792	1.381034	-1.117589	1.203463	10.241195	0.000000	0.000000	8.910725	-10.085554	10.878788	-5.332365	-13.512459	21.266650	33.686293	79.341794	-1.635421	7.705339	9.783575	-16.793831	79.570055	26.439447	51.692615	-7.999186	-9.925401
4.949153	0.007075	-2.302715	91.745554	0.187141	0.517721	1.000692	4.694690	1.211410	-9.134333	16.473568	0.287518	47.118138	17.127627	0.000000	1.984581	0.071993	-8.266884	12.703380	0.221716	44.893331	6.424355	0.000000	-0.151788	0.111575	1.829575	-0.281886	0.148395	1.943924	-0.249373	0.271283	1.943924	-0.173479	0.271283	1.600878	-0.140951	0.227524	1.486530	-0.086732	0.172830	1.372181	-1.084210	1.262159	10.175548	0.000000	0.000000	9.193880	-10.122626	10.963592	-5.293130	-13.604186	20.729982	33.910249	79.822573	-0.975914	8.533008	9.746422	-16.845393	79.063170	26.578458	51.345510	-7.618340	-9.834931
